<svg id="Capa_1" enable-background="new 0 0 512 512" height="512" viewBox="0 0 512 512" width="512" xmlns="http://www.w3.org/2000/svg"><g><g><g><g><g><g><g><g><g><g><g><g><path d="m314.416.151h-204.325c-4.398 0-8.698.951-12.626 2.738l-6.143 15.011v54.676c0 10.437-8.461 18.898-18.898 18.898h-55.684l-14.002 6.142c-1.787 3.928-2.738 8.228-2.738 12.626v371.126c0 16.835 13.647 30.482 30.482 30.482h283.934c16.835 0 30.482-13.647 30.482-30.482v-450.735c0-16.835-13.648-30.482-30.482-30.482z" fill="#f4fbff"/><path d="m372.054.151h-65.365c16.835 0 30.482 13.647 30.482 30.482v450.735c0 16.835-13.647 30.482-30.482 30.482h65.365c16.835 0 30.482-13.647 30.482-30.482v-450.735c0-16.835-13.647-30.482-30.482-30.482z" fill="#e4f6ff"/><path d="m8.928 88.688 79.61-79.61c2.606-2.606 5.636-4.692 8.928-6.19v75.83c0 10.437-8.461 18.898-18.898 18.898h-75.83c1.498-3.291 3.584-6.322 6.19-8.928z" fill="#e28086"/></g></g></g></g></g></g></g></g></g><g><g><g><g><g><path d="m408.663 310.745c-8.697 0-15.772-7.075-15.772-15.772v-57.059c0-6.775-5.512-12.286-12.287-12.286h-86.865c-6.775 0-12.287 5.512-12.287 12.286v57.059c0 8.697-7.075 15.772-15.772 15.772s-15.772-7.075-15.772-15.772v-57.059c0-24.168 19.662-43.83 43.831-43.83h86.865c24.169 0 43.831 19.662 43.831 43.83v57.059c0 8.696-7.075 15.772-15.772 15.772z" fill="#407093"/></g><g><path d="m452.509 373.032s-.001 0-.002 0c-.698.023-1.419.034-2.062.034h-226.548c-33.996 0-61.555-27.559-61.555-61.555v166.369c0 18.761 15.209 33.97 33.97 33.97h224.27c18.761 0 33.97-15.209 33.97-33.97v-104.948c-.005 0-.01.001-.014.001-.743.048-1.49.082-2.029.099z" fill="#ddb7a0"/><path d="m452.509 373.032s-.001 0-.002 0c-1.615.053-2.554.027-5.681.034v104.814c0 18.761-15.209 33.97-33.97 33.97h65.174c18.761 0 33.97-15.209 33.97-33.97v-166.368c0 33.242-26.433 60.487-59.491 61.52z" fill="#d6a889"/><path d="m478.03 267.209h-281.718c-18.761 0-33.97 15.209-33.97 33.97v23.625c0 33.996 27.559 61.555 61.555 61.555h226.548c33.996 0 61.555-27.559 61.555-61.555v-23.625c0-18.761-15.209-33.97-33.97-33.97z" fill="#cc9675"/><path d="m454.552 386.223v-85.045c0-18.761-15.209-33.97-33.97-33.97h-224.27c-18.761 0-33.97 15.209-33.97 33.97v23.625c0 33.996 27.559 61.555 61.555 61.555h226.548c1.38 0 2.75-.045 4.107-.135z" fill="#cc9675"/><path d="m446.826 301.179v85.18h3.619c33.996 0 61.555-27.559 61.555-61.555v-23.625c0-18.761-15.209-33.97-33.97-33.97h-65.174c18.761 0 33.97 15.209 33.97 33.97z" fill="#c4845c"/></g></g></g></g><g><g><path d="m249.395 426.338c-11.327 0-20.51-9.183-20.51-20.51v-27.62c0-11.327 9.183-20.51 20.51-20.51 11.327 0 20.51 9.183 20.51 20.51v27.62c0 11.327-9.183 20.51-20.51 20.51z" fill="#f4fbff"/></g><g><path d="m424.948 426.338c-11.327 0-20.51-9.183-20.51-20.51v-27.62c0-11.327 9.183-20.51 20.51-20.51 11.327 0 20.51 9.183 20.51 20.51v27.62c0 11.327-9.183 20.51-20.51 20.51z" fill="#f4fbff"/></g></g></g></g><g><g><path d="m330.156 60.115h-160.496c-4.268 0-7.726-3.459-7.726-7.726s3.459-7.726 7.726-7.726h160.496c4.268 0 7.726 3.459 7.726 7.726s-3.458 7.726-7.726 7.726z" fill="#cbe2ff"/></g><g><path d="m330.156 105.342h-160.496c-4.268 0-7.726-3.459-7.726-7.726 0-4.268 3.459-7.726 7.726-7.726h160.496c4.268 0 7.726 3.459 7.726 7.726s-3.458 7.726-7.726 7.726z" fill="#cbe2ff"/></g></g></g></g></svg>