<svg width="512" height="512" viewBox="0 0 512 512" fill="none" xmlns="http://www.w3.org/2000/svg">
<path d="M320 14H32C26.4772 14 22 18.4772 22 24V336C22 341.523 26.4772 346 32 346H320C325.523 346 330 341.523 330 336V24C330 18.4772 325.523 14 320 14Z" fill="url(#paint0_linear)"/>
<path d="M272 8H320C324.243 8 328.313 9.68571 331.314 12.6863C334.314 15.6869 336 19.7565 336 24V96C336 104.487 332.629 112.626 326.627 118.627C320.626 124.629 312.487 128 304 128C295.513 128 287.374 124.629 281.373 118.627C275.371 112.626 272 104.487 272 96V8Z" fill="url(#paint1_linear)"/>
<path d="M144 8H208V96C208 104.487 204.629 112.626 198.627 118.627C192.626 124.629 184.487 128 176 128C167.513 128 159.374 124.629 153.373 118.627C147.371 112.626 144 104.487 144 96V8Z" fill="url(#paint2_linear)"/>
<path d="M32 8H80V96C80 104.487 76.6286 112.626 70.6274 118.627C64.6263 124.629 56.4869 128 48 128C39.5131 128 31.3737 124.629 25.3726 118.627C19.3714 112.626 16 104.487 16 96V24C16 19.7565 17.6857 15.6869 20.6863 12.6863C23.6869 9.68571 27.7565 8 32 8V8Z" fill="url(#paint3_linear)"/>
<path d="M80 8H144V96C144 104.487 140.629 112.626 134.627 118.627C128.626 124.629 120.487 128 112 128C103.513 128 95.3737 124.629 89.3726 118.627C83.3714 112.626 80 104.487 80 96V8Z" fill="url(#paint4_linear)"/>
<path d="M208 8H272V96C272 104.487 268.629 112.626 262.627 118.627C256.626 124.629 248.487 128 240 128C231.513 128 223.374 124.629 217.373 118.627C211.371 112.626 208 104.487 208 96V8Z" fill="url(#paint5_linear)"/>
<path d="M160 166H80C77.3478 166 74.8043 167.054 72.9289 168.929C71.0536 170.804 70 173.348 70 176V346H170V176C170 173.348 168.946 170.804 167.071 168.929C165.196 167.054 162.652 166 160 166Z" fill="url(#paint6_linear)"/>
<path d="M208 176H296V240H208V176Z" fill="url(#paint7_linear)"/>
<path d="M296 250H208C205.348 250 202.804 248.946 200.929 247.071C199.054 245.196 198 242.652 198 240V176C198 173.348 199.054 170.804 200.929 168.929C202.804 167.054 205.348 166 208 166H296C298.652 166 301.196 167.054 303.071 168.929C304.946 170.804 306 173.348 306 176V240C306 242.652 304.946 245.196 303.071 247.071C301.196 248.946 298.652 250 296 250ZM218 230H286V186H218V230Z" fill="#E3DEDE"/>
<path d="M505.36 334.917C504.246 305.278 502.002 277.468 501.98 277.191C501.816 275.175 501.045 273.256 499.768 271.688C498.491 270.119 496.769 268.974 494.828 268.405L385.817 236.405C383.978 235.865 382.022 235.865 380.183 236.405L271.172 268.405C269.231 268.974 267.509 270.119 266.232 271.688C264.955 273.256 264.184 275.175 264.02 277.191C263.998 277.468 261.754 305.278 260.64 334.917C258.573 389.945 261.907 404.201 265.04 410.472C266.825 414.042 271.567 423.525 325.44 468.392C351.396 490.007 376.586 509.686 376.84 509.882C378.598 511.254 380.764 512 382.994 512C385.224 512 387.39 511.254 389.148 509.882C389.4 509.682 414.59 490.007 440.548 468.392C494.426 423.525 499.168 414.042 500.948 410.472C504.093 404.2 507.427 389.945 505.36 334.917V334.917Z" fill="url(#paint8_linear)"/>
<path d="M464.024 307.953C463.903 305.897 463.149 303.928 461.867 302.316C460.584 300.704 458.835 299.527 456.859 298.947L385.818 278.093C383.978 277.553 382.022 277.553 380.182 278.093L309.141 298.947C307.165 299.527 305.416 300.704 304.133 302.316C302.851 303.928 302.097 305.897 301.976 307.953C300.266 336.898 299.076 373.526 300.869 389.518C301.108 391.65 302.027 393.649 303.49 395.218C315.69 408.308 349.316 436.595 376.72 458.702C378.498 460.137 380.715 460.92 383 460.92C385.285 460.92 387.502 460.137 389.28 458.702C416.68 436.595 450.314 408.308 462.51 395.218C463.973 393.649 464.892 391.65 465.131 389.518C466.921 373.525 465.734 336.9 464.024 307.953V307.953Z" fill="url(#paint9_linear)"/>
<path d="M382.994 384C381.021 384.001 379.093 383.416 377.453 382.32L353.453 366.32C351.246 364.849 349.714 362.561 349.194 359.961C348.674 357.36 349.208 354.659 350.679 352.452C352.15 350.245 354.438 348.713 357.038 348.193C359.639 347.673 362.34 348.207 364.547 349.678L380.919 360.6L407.2 327.753C408.02 326.727 409.035 325.874 410.185 325.24C411.335 324.607 412.599 324.206 413.905 324.061C415.21 323.916 416.531 324.029 417.792 324.395C419.053 324.76 420.231 325.371 421.256 326.191C422.281 327.011 423.135 328.026 423.769 329.176C424.402 330.326 424.803 331.59 424.948 332.896C425.093 334.201 424.98 335.522 424.614 336.783C424.249 338.044 423.638 339.222 422.818 340.247L390.818 380.247C389.88 381.421 388.689 382.367 387.335 383.017C385.98 383.667 384.496 384.003 382.994 384V384Z" fill="#EDF7F8"/>
<defs>
<linearGradient id="paint0_linear" x1="18.929" y1="337.071" x2="333.071" y2="22.929" gradientUnits="userSpaceOnUse">
<stop stop-color="#E3DEDE"/>
<stop offset="1" stop-color="white"/>
</linearGradient>
<linearGradient id="paint1_linear" x1="262.686" y1="99.941" x2="340.627" y2="22" gradientUnits="userSpaceOnUse">
<stop stop-color="#F7D1D1"/>
<stop offset="1" stop-color="#FCF0F0"/>
</linearGradient>
<linearGradient id="paint2_linear" x1="8763.9" y1="12000.9" x2="16998.1" y2="7609.42" gradientUnits="userSpaceOnUse">
<stop stop-color="#F7D1D1"/>
<stop offset="1" stop-color="#FCF0F0"/>
</linearGradient>
<linearGradient id="paint3_linear" x1="593.856" y1="12282.1" x2="8828.01" y2="7890.58" gradientUnits="userSpaceOnUse">
<stop stop-color="#F7D1D1"/>
<stop offset="1" stop-color="#FCF0F0"/>
</linearGradient>
<linearGradient id="paint4_linear" x1="70.686" y1="99.941" x2="153.314" y2="17.314" gradientUnits="userSpaceOnUse">
<stop stop-color="#E87676"/>
<stop offset="1" stop-color="#F2B3B3"/>
</linearGradient>
<linearGradient id="paint5_linear" x1="12923.9" y1="12000.9" x2="21158.1" y2="7609.42" gradientUnits="userSpaceOnUse">
<stop stop-color="#E87676"/>
<stop offset="1" stop-color="#F2B3B3"/>
</linearGradient>
<linearGradient id="paint6_linear" x1="51.464" y1="327.464" x2="188.536" y2="190.393" gradientUnits="userSpaceOnUse">
<stop stop-color="#816A6A"/>
<stop offset="1" stop-color="#9D8B8B"/>
</linearGradient>
<linearGradient id="paint7_linear" x1="208" y1="208" x2="296" y2="208" gradientUnits="userSpaceOnUse">
<stop stop-color="#9D8B8B"/>
<stop offset="1" stop-color="#B9ACAC"/>
</linearGradient>
<linearGradient id="paint8_linear" x1="288.892" y1="437.169" x2="477.108" y2="248.953" gradientUnits="userSpaceOnUse">
<stop stop-color="#B8E1E3"/>
<stop offset="1" stop-color="#EDF7F8"/>
</linearGradient>
<linearGradient id="paint9_linear" x1="320.132" y1="411.962" x2="445.868" y2="286.226" gradientUnits="userSpaceOnUse">
<stop stop-color="#72C2C8"/>
<stop offset="1" stop-color="#B8E1E3"/>
</linearGradient>
</defs>
</svg>
