<svg height="512pt" viewBox="-28 0 512 512.00013" width="512pt" xmlns="http://www.w3.org/2000/svg" xmlns:xlink="http://www.w3.org/1999/xlink"><linearGradient id="a"><stop offset="0" stop-color="#ff4974"/><stop offset=".2277" stop-color="#fd4571"/><stop offset=".4662" stop-color="#f93867"/><stop offset=".7098" stop-color="#f12358"/><stop offset=".9554" stop-color="#e60642"/><stop offset="1" stop-color="#e4003d"/></linearGradient><linearGradient id="b" gradientUnits="userSpaceOnUse" x1="93.5346309928" x2="449.7095918798" xlink:href="#a" y1="226.9342846092" y2="226.9342846092"/><linearGradient id="c"><stop offset="0" stop-color="#e4003d" stop-opacity="0"/><stop offset=".3592" stop-color="#c81d47" stop-opacity=".360784"/><stop offset=".7611" stop-color="#af3750" stop-opacity=".760784"/><stop offset="1" stop-color="#a64153"/></linearGradient><linearGradient id="d" gradientUnits="userSpaceOnUse" x1="242.2037333054" x2="352.4961101084" xlink:href="#c" y1="172.0941418294" y2="172.0941418294"/><linearGradient id="e" gradientUnits="userSpaceOnUse" x1="252.5611965794" x2="165.2523088678" xlink:href="#c" y1="185.3166980992" y2="-77.8657710654"/><linearGradient id="f" gradientUnits="userSpaceOnUse" x1="237.4483555758" x2="133.9010295142" xlink:href="#c" y1="281.9588478604" y2="193.0053351284"/><linearGradient id="g"><stop offset="0" stop-color="#ffe548"/><stop offset="1" stop-color="#ffb211"/></linearGradient><linearGradient id="h" gradientUnits="userSpaceOnUse" x1="210.3818153182" x2="210.3818153182" xlink:href="#g" y1="21.255162506" y2="59.6207444814"/><linearGradient id="i" gradientUnits="userSpaceOnUse" x1="273.6662472166" x2="270.6960435874" xlink:href="#c" y1="377.9103996778" y2="425.434661667"/><linearGradient id="j" gradientUnits="userSpaceOnUse" x1="270.5680435324" x2="270.5680435324" xlink:href="#g" y1="429.0927526506" y2="495.4573176372"/><linearGradient id="k"><stop offset="0" stop-color="#ff9517" stop-opacity="0"/><stop offset=".1939" stop-color="#f58b1c" stop-opacity=".192157"/><stop offset=".6704" stop-color="#e27927" stop-opacity=".670588"/><stop offset="1" stop-color="#db722b"/></linearGradient><linearGradient id="l" gradientUnits="userSpaceOnUse" x1="249.1385253048" x2="174.5092728454" xlink:href="#k" y1="504.8693875638" y2="587.1811531282"/><linearGradient id="m" gradientUnits="userSpaceOnUse" x1="232.3714216296" x2="197.8193377634" xlink:href="#k" y1="126.0088012428" y2="80.6269088016"/><linearGradient id="n" gradientUnits="userSpaceOnUse" x1="10.2475552054" x2="366.4225160924" xlink:href="#a" y1="248.4943126968" y2="248.4943126968"/><linearGradient id="o" gradientUnits="userSpaceOnUse" x1="158.9165571258" x2="269.209034321" xlink:href="#c" y1="193.654169917" y2="193.654169917"/><linearGradient id="p" gradientUnits="userSpaceOnUse" x1="169.274120792" x2="81.9652330804" xlink:href="#c" y1="206.876826579" y2="-56.3056425856"/><linearGradient id="q" gradientUnits="userSpaceOnUse" x1="127.0947395308" x2="127.0947395308" xlink:href="#g" y1="42.8152909858" y2="81.180772569"/><linearGradient id="r" gradientUnits="userSpaceOnUse" x1="190.379071037" x2="187.4088674078" xlink:href="#c" y1="399.4705281576" y2="446.9947901468"/><linearGradient id="s" gradientUnits="userSpaceOnUse" x1="187.280967745" x2="187.280967745" xlink:href="#g" y1="450.6528811304" y2="517.017446117"/><linearGradient id="t" gradientUnits="userSpaceOnUse" x1="165.8514495174" x2="91.222197058" xlink:href="#k" y1="526.4294156514" y2="608.741281608"/><path d="m447.601562 442.691406c6.1875-48.988281 3.160157-120.933594-71.46875-108.277344-25.453124 4.3125-50.890624-7.652343-63.253906-30.316406-7.179687-13.164062-10.417968-28.117187-9.328125-43.070312l16.300781-223.449219c.367188-5.464844-2.796874-10.558594-7.859374-12.652344l-3.496094-1.449219c-66.707032-17.5-136.9375-16.304687-203.007813 3.449219-6.710937.84375-11.601562 6.777344-11.148437 13.523438l24.710937 205.460937c6.039063 44.859375.699219 65.710938-15.519531 107.972656-6.609375 17.214844-9.996094 35.5-9.996094 53.941407v10.058593h43.28125c31.445313 0 62.746094 4.171876 93.09375 12.40625 30.347656 8.234376 61.652344 12.40625 93.09375 12.40625h124.597656zm0 0" fill="url(#b)"/><path d="m348.628906 332.816406c-14.9375-4.378906-27.949218-14.414062-35.75-28.71875-7.179687-13.164062-10.417968-28.117187-9.328125-43.070312l16.300781-223.449219c.367188-5.464844-2.796874-10.558594-7.859374-12.65625l-3.5-1.445313c-31.910157-8.371093-64.628907-12.453124-97.3125-12.285156v318.082032s85.511718-16 137.4375 3.726562zm0 0" fill="url(#d)"/><path d="m303.550781 261.027344 16.300781-223.449219c.367188-5.464844-2.796874-10.558594-7.859374-12.652344l-3.496094-1.449219c-66.707032-17.5-136.9375-16.304687-203.007813 3.449219-6.710937.84375-11.601562 6.773438-11.148437 13.523438l4.058594 33.742187 206.148437 206.148438c-1.125-6.339844-1.46875-12.828125-.996094-19.3125zm0 0" fill="url(#e)"/><path d="m447.601562 442.695312h-124.601562c-15.71875 0-31.414062-1.046874-46.953125-3.113281-15.554687-2.070312-30.964844-5.183593-46.136719-9.296875-30.347656-8.226562-61.648437-12.40625-93.09375-12.40625h-43.285156v-10.058594c0-9.21875.847656-18.394531 2.523438-27.425781 1.679687-9.035156 4.167968-17.90625 7.480468-26.515625 16.214844-42.261718 21.546875-63.105468 15.519532-107.96875l-6.0625-50.351562-18.65625-155.105469c-.019532-.285156-.03125-.566406-.03125-.851563 0-6.386718 4.757812-11.863281 11.175781-12.679687 6.585937-1.96875 13.203125-3.753906 19.855469-5.351563h.019531c37.0625-.066406 74.132812 1.554688 111.203125 4.851563 5.398437.480469 10.089844 3.125 13.269531 7.011719l65.542969 65.542968-7.804688 107.023438-4.015625 55.027344c-.140625 1.894531-.207031 3.789062-.207031 5.683594 0 13.027343 3.265625 25.890624 9.535156 37.386718 12.363282 22.671875 37.800782 34.632813 63.257813 30.3125 74.632812-12.648437 77.65625 59.292969 71.464843 108.285156zm0 0" fill="url(#f)"/><path d="m312.941406 75.875c-68.386718-6.042969-136.734375-6.042969-205.121094 0-10.429687.921875-19.671874-6.691406-20.820312-17.09375-1.195312-10.863281-2.398438-21.726562-3.59375-32.585938-1.191406-10.769531 6.722656-20.378906 17.515625-21.335937 72.980469-6.480469 145.9375-6.480469 218.921875 0 10.789062.957031 18.703125 10.566406 17.515625 21.335937-1.199219 10.859376-2.398437 21.722657-3.597656 32.585938-1.148438 10.402344-10.390625 18.011719-20.820313 17.09375zm0 0" fill="url(#h)"/><path d="m103.53125 353.882812c-6.609375 17.214844-9.996094 35.5-9.996094 53.941407v10.058593h43.28125c31.441406 0 62.746094 4.171876 93.09375 12.40625 30.347656 8.234376 61.652344 12.40625 93.09375 12.40625h124.597656c6.1875-48.992187 3.160157-120.9375-71.46875-108.28125-15.40625 2.613282-30.804687-.75-43.300781-8.828124h-219.214843c-2.679688 8.570312-6.046876 17.769531-10.085938 28.296874zm0 0" fill="url(#i)"/><path d="m325.292969 431.53125c-32.816407 0-65.488281-4.878906-97.160157-14.515625-31.671874-9.632813-64.34375-14.515625-97.160156-14.515625h-26.035156c-10.566406 0-19.132812 8.566406-19.132812 19.132812v56.59375c0 6.742188 4.988281 4.910157 11.734374 4.910157l47.527344 7.304687c6.742188 0 12.210938-5.46875 12.210938-12.214844 0-8.558593 7.515625-15.1875 16-14.097656 18.503906 2.378906 36.84375 6.316406 54.859375 11.792969 31.671875 9.636719 64.34375 14.515625 97.160156 14.515625h113.164063c9.320312 0 16.875-7.554688 16.875-16.871094v-25.160156c0-9.320312-7.554688-16.875-16.875-16.875zm0 0" fill="url(#j)"/><path d="m438.457031 431.53125h-113.164062c-32.816407 0-65.488281-4.878906-97.160157-14.515625-23.195312-7.054687-46.925781-11.550781-70.855468-13.457031v74.667968c0-8.558593 7.511718-15.1875 16-14.097656 18.503906 2.378906 36.839844 6.316406 54.855468 11.792969 31.671876 9.636719 64.34375 14.515625 97.160157 14.515625h113.164062c9.320313 0 16.875-7.554688 16.875-16.871094v-25.160156c0-9.320312-7.554687-16.875-16.875-16.875zm0 0" fill="url(#l)"/><path d="m107.820312 75.875c60.910157-5.382812 121.789063-5.957031 182.695313-1.753906l-40.691406-40.691406c-3.179688-3.878907-7.863281-6.53125-13.269531-7.011719-51.066407-4.53125-102.125-5.882813-153.1875-4.070313-.109376 1.257813-.105469 2.542969.039062 3.847656 1.195312 10.859376 2.398438 21.722657 3.59375 32.585938 1.148438 10.402344 10.390625 18.011719 20.820312 17.09375zm0 0" fill="url(#m)"/><path d="m364.3125 464.253906c6.191406-48.992187 3.160156-120.9375-71.464844-108.28125-25.457031 4.316406-50.894531-7.648437-63.257812-30.3125-7.179688-13.164062-10.417969-28.117187-9.324219-43.074218l16.300781-223.445313c.363282-5.46875-2.796875-10.558594-7.859375-12.65625l-3.5-1.449219c-66.703125-17.5-136.9375-16.304687-203.007812 3.449219-6.710938.84375-11.597657 6.777344-11.144531 13.527344l24.710937 205.457031c6.035156 44.863281.699219 65.710938-15.519531 107.972656-6.609375 17.214844-9.996094 35.5-9.996094 53.941406v10.058594h43.28125c31.445312 0 62.746094 4.171875 93.09375 12.40625s61.648438 12.40625 93.09375 12.40625zm0 0" fill="url(#n)"/><path d="m265.339844 354.375c-14.933594-4.378906-27.945313-14.414062-35.75-28.71875-7.179688-13.164062-10.417969-28.117188-9.324219-43.070312l16.300781-223.445313c.363282-5.46875-2.796875-10.5625-7.859375-12.65625l-3.5-1.449219c-31.910156-8.371094-64.628906-12.453125-97.3125-12.28125v318.078125s85.507813-15.996093 137.4375 3.730469zm0 0" fill="url(#o)"/><path d="m220.265625 282.585938 16.300781-223.445313c.363282-5.46875-2.796875-10.5625-7.859375-12.65625l-3.5-1.449219c-66.703125-17.5-136.9375-16.304687-203.007812 3.449219-6.710938.84375-11.597657 6.777344-11.144531 13.527344l4.054687 33.738281 206.152344 206.148438c-1.128907-6.339844-1.46875-12.824219-.996094-19.3125zm0 0" fill="url(#p)"/><path d="m229.65625 97.433594c-68.386719-6.042969-136.734375-6.042969-205.125 0-10.425781.921875-19.667969-6.691406-20.816406-17.09375-1.199219-10.863282-2.398438-21.726563-3.597656-32.585938-1.1875-10.769531 6.726562-20.378906 17.515624-21.335937 72.984376-6.480469 145.941407-6.476563 218.921876 0 10.792968.957031 18.707031 10.566406 17.519531 21.335937-1.199219 10.859375-2.398438 21.722656-3.601563 32.585938-1.148437 10.402344-10.390625 18.015625-20.816406 17.09375zm0 0" fill="url(#q)"/><path d="m20.242188 375.441406c-6.605469 17.21875-9.996094 35.5-9.996094 53.941406v10.058594h43.285156c31.441406 0 62.746094 4.171875 93.09375 12.40625 30.34375 8.234375 61.648438 12.40625 93.09375 12.40625h124.597656c6.1875-48.992187 3.160156-120.933594-71.46875-108.28125-15.410156 2.613282-30.804687-.746094-43.304687-8.828125h-219.210938c-2.683593 8.570313-6.046875 17.769531-10.089843 28.296875zm0 0" fill="url(#r)"/><path d="m242.007812 453.09375c-32.816406 0-65.488281-4.882812-97.160156-14.515625-31.671875-9.636719-64.34375-14.515625-97.160156-14.515625h-26.039062c-10.566407 0-19.132813 8.566406-19.132813 19.132812v56.589844c0 6.746094 5.46875 12.214844 12.214844 12.214844h47.046875c6.746094 0 12.214844-5.46875 12.214844-12.214844 0-8.554687 7.511718-15.183594 15.996093-14.09375 18.503907 2.375 36.84375 6.3125 54.859375 11.792969 31.671875 9.632813 64.34375 14.515625 97.160156 14.515625h113.164063c9.320313 0 16.875-7.554688 16.875-16.875v-25.160156c0-9.316406-7.554687-16.871094-16.875-16.871094zm0 0" fill="url(#s)"/><path d="m355.171875 453.09375h-113.164063c-32.816406 0-65.488281-4.882812-97.160156-14.515625-23.195312-7.058594-46.925781-11.554687-70.855468-13.460937v74.667968c0-8.554687 7.511718-15.183594 15.996093-14.09375 18.503907 2.378906 36.84375 6.3125 54.859375 11.792969 31.671875 9.632813 64.34375 14.515625 97.160156 14.515625h113.164063c9.320313 0 16.875-7.554688 16.875-16.875v-25.160156c0-9.316406-7.554687-16.871094-16.875-16.871094zm0 0" fill="url(#t)"/></svg>