<svg id="Capa_1" enable-background="new 0 0 510 510" height="512" viewBox="0 0 510 510" width="512" xmlns="http://www.w3.org/2000/svg" xmlns:xlink="http://www.w3.org/1999/xlink"><linearGradient id="lg1"><stop offset="0" stop-color="#eef5f6"/><stop offset="1" stop-color="#cbe5e8"/></linearGradient><linearGradient id="SVGID_1_" gradientUnits="userSpaceOnUse" x1="36.678" x2="93.633" xlink:href="#lg1" y1="91.935" y2="167.231"/><linearGradient id="lg2"><stop offset="0" stop-color="#cbe5e8" stop-opacity="0"/><stop offset="1" stop-color="#7ca1b1"/></linearGradient><linearGradient id="SVGID_2_" gradientUnits="userSpaceOnUse" x1="86.544" x2="86.544" xlink:href="#lg2" y1="132.399" y2="63.687"/><linearGradient id="lg3"><stop offset="0" stop-color="#60b7ff"/><stop offset="1" stop-color="#0268b4"/></linearGradient><linearGradient id="SVGID_3_" gradientUnits="userSpaceOnUse" x1="75.46" x2="100.988" xlink:href="#lg3" y1="36.243" y2="100.063"/><linearGradient id="SVGID_4_" gradientUnits="userSpaceOnUse" x1="153.013" x2="443.721" xlink:href="#lg1" y1="243.933" y2="534.64"/><linearGradient id="SVGID_5_" gradientUnits="userSpaceOnUse" x1="336.796" x2="149.305" xlink:href="#lg2" y1="448.462" y2="71.623"/><linearGradient id="SVGID_6_" gradientUnits="userSpaceOnUse" x1="440.937" x2="300.201" y1="476.524" y2="359.594"><stop offset="0" stop-color="#cbe5e8" stop-opacity="0"/><stop offset=".0977" stop-color="#bcd8de" stop-opacity=".098"/><stop offset=".322" stop-color="#a0c0ca" stop-opacity=".322"/><stop offset=".5476" stop-color="#8cafbc" stop-opacity=".548"/><stop offset=".7734" stop-color="#80a5b4" stop-opacity=".773"/><stop offset="1" stop-color="#7ca1b1"/></linearGradient><linearGradient id="SVGID_7_" gradientUnits="userSpaceOnUse" x1="126.04" x2="322.933" xlink:href="#lg3" y1="116.661" y2="313.555"/><linearGradient id="SVGID_8_" gradientUnits="userSpaceOnUse" x1="255" x2="255" xlink:href="#lg3" y1="347.271" y2="-1.581"/><linearGradient id="SVGID_9_" gradientUnits="userSpaceOnUse" x1="438.972" x2="354.951" y1="334.183" y2="168.766"><stop offset="0" stop-color="#0268b4" stop-opacity="0"/><stop offset="1" stop-color="#0268b4"/></linearGradient><linearGradient id="SVGID_10_" gradientUnits="userSpaceOnUse" x1="255" x2="255" xlink:href="#lg2" y1="459.579" y2="518.782"/><linearGradient id="lg4"><stop offset="0" stop-color="#c1e9af"/><stop offset="1" stop-color="#4fc123"/></linearGradient><linearGradient id="SVGID_11_" gradientUnits="userSpaceOnUse" x1="147.26" x2="372.734" xlink:href="#lg4" y1="209.488" y2="434.962"/><linearGradient id="SVGID_12_" gradientUnits="userSpaceOnUse" x1="349.485" x2="153.401" xlink:href="#lg4" y1="417.563" y2="221.479"/><linearGradient id="SVGID_13_" gradientUnits="userSpaceOnUse" x1="353.287" x2="277.279" y1="407.862" y2="331.853"><stop offset="0" stop-color="#4fc123" stop-opacity="0"/><stop offset="1" stop-color="#3e5959"/></linearGradient><linearGradient id="SVGID_14_" gradientUnits="userSpaceOnUse" x1="237.321" x2="327.927" y1="291.37" y2="381.976"><stop offset="0" stop-color="#ffe177"/><stop offset="1" stop-color="#fe9738"/></linearGradient><g><g><g><path d="m46.195 65.535h80.697v184.649h-80.697z" fill="url(#SVGID_1_)"/><path d="m46.195 82.514 80.698 76.143v-93.122h-80.698z" fill="url(#SVGID_2_)"/><path d="m128.047 81.715h-83.005c-5.77 0-10.447-4.677-10.447-10.447v-14.63c0-5.77 4.677-10.447 10.447-10.447h83.005c5.77 0 10.447 4.677 10.447 10.447v14.63c-.001 5.77-4.678 10.447-10.447 10.447z" fill="url(#SVGID_3_)"/><path d="m430.517 510h-351.034c-18.384 0-33.288-14.062-33.288-31.409v-208.42l180.397-249.158c14.002-19.339 42.815-19.339 56.817 0l180.396 249.158v208.42c0 17.347-14.904 31.409-33.288 31.409z" fill="url(#SVGID_4_)"/><path d="m226.592 21.013-180.397 249.158v27.778l224.733 212.051h159.589c18.384 0 33.288-14.062 33.288-31.409v-208.42l-180.397-249.158c-14.002-19.339-42.814-19.339-56.816 0z" fill="url(#SVGID_5_)"/><path d="m344.212 182.803c-1.865-2.532-4.864-4.175-8.252-4.175h-159.12c-5.667 0-10.261 4.594-10.261 10.261v4.288c0 27.448-22.251 49.699-49.699 49.699-5.667 0-10.261 4.594-10.261 10.261v61.872c0 49.717 19.75 97.398 54.906 132.554l13.438 13.438c.001.001.001.001.001.001l48.997 48.998h206.556c18.384 0 33.288-14.062 33.288-31.409v-175.9c-55.465-55.433-118.943-119.005-119.593-119.888z" fill="url(#SVGID_6_)"/><g><path d="m268.217 102.043 131.899 188.57c2.921 4.176 7.87 6.689 13.173 6.689h62.042c12.573 0 20.098-13.194 13.173-23.096l-167.896-240.032c-31.871-45.565-99.344-45.565-131.215 0l-167.896 240.032c-6.926 9.901.6 23.096 13.173 23.096h62.042c5.303 0 10.251-2.513 13.173-6.689l131.899-188.57c6.42-9.179 20.012-9.179 26.433 0z" fill="url(#SVGID_7_)"/><path d="m109.884 290.613 131.899-188.57c6.259-8.949 20.174-8.949 26.434 0l131.899 188.57c2.921 4.176 7.87 6.689 13.173 6.689h48.428l-169.849-242.825c-17.46-24.962-56.276-24.962-73.736 0l-169.849 242.825h48.428c5.304 0 10.252-2.513 13.173-6.689z" fill="url(#SVGID_8_)"/><g><path d="m344.212 182.803c-1.865-2.532-4.864-4.175-8.252-4.175h-14.175l78.33 111.984c2.921 4.176 7.87 6.689 13.173 6.689h45.125c-54.105-54.08-113.572-113.644-114.201-114.498z" fill="url(#SVGID_9_)"/></g></g><path d="m46.195 410.085v68.505c0 17.347 14.903 31.409 33.288 31.409h351.034c18.384 0 33.288-14.062 33.288-31.409v-68.505z" fill="url(#SVGID_10_)"/></g></g><g><g><path d="m344.822 191.777v-4.288c0-5.667-4.594-10.261-10.261-10.261h-159.121c-5.667 0-10.261 4.594-10.261 10.261v4.288c0 27.448-22.251 49.699-49.699 49.699-5.667 0-10.261 4.594-10.261 10.261v61.872c0 49.717 19.75 97.398 54.906 132.554l13.438 13.438c44.977 44.977 117.899 44.977 162.876 0l13.438-13.438c35.155-35.155 54.906-82.836 54.906-132.554v-61.872c0-5.667-4.594-10.261-10.261-10.261-27.449 0-49.7-22.251-49.7-49.699z" fill="url(#SVGID_11_)"/><path d="m254.448 470.556c-24.72-.142-47.939-9.835-65.434-27.33l-13.149-13.149c-15.654-15.654-27.81-34.022-36.113-54.571-8.048-19.918-11.935-41.273-11.935-62.755v-40.301c0-5.657 3.769-10.606 9.211-12.15 23.752-6.741 42.253-26.097 47.768-50.334 1.319-5.798 6.394-9.96 12.34-9.96h115.729c5.946 0 11.021 4.163 12.34 9.96 5.515 24.237 24.016 43.593 47.768 50.334 5.442 1.544 9.211 6.493 9.211 12.15v40.301c0 21.483-3.887 42.838-11.936 62.756-8.303 20.549-20.459 38.917-36.113 54.57l-12.482 12.482c-17.832 17.831-41.988 28.142-67.205 27.997z" fill="url(#SVGID_12_)"/></g><path d="m336.438 459.601 13.438-13.438c35.155-35.155 54.905-82.836 54.905-132.554v-1.267l-39.809-39.809c-8.203-8.203-21.503-8.203-29.706 0l-93.205 93.205c-5.399 5.399-14.152 5.399-19.551.001l-45.676-45.676c-8.203-8.203-21.503-8.203-29.706 0s-8.203 20.452 0 28.655l140.814 139.762c17.821-5.524 34.064-14.447 48.496-28.879z" fill="url(#SVGID_13_)"/><path d="m363.922 270.431c-8.203-8.203-21.503-8.203-29.706 0l-93.205 93.205c-5.399 5.399-14.153 5.399-19.552 0l-45.675-45.675c-8.203-8.203-21.503-8.203-29.706 0-8.203 8.203-8.203 21.503 0 29.706l57.928 57.928c15.038 15.038 39.419 15.038 54.457 0l105.458-105.458c8.204-8.203 8.204-21.503.001-29.706z" fill="url(#SVGID_14_)"/></g></g></svg>