<svg id="Capa_1" enable-background="new 0 0 510 510" height="512" viewBox="0 0 510 510" width="512" xmlns="http://www.w3.org/2000/svg" xmlns:xlink="http://www.w3.org/1999/xlink"><linearGradient id="lg1"><stop offset="0" stop-color="#d4f7ff"/><stop offset="1" stop-color="#a2e3e9"/></linearGradient><linearGradient id="SVGID_1_" gradientUnits="userSpaceOnUse" x1="194.12" x2="379.977" xlink:href="#lg1" y1="124.245" y2="472.588"/><linearGradient id="SVGID_2_" gradientUnits="userSpaceOnUse" x1="70.052" x2="145.052" xlink:href="#lg1" y1="188.843" y2="288.843"/><linearGradient id="lg2"><stop offset="0" stop-color="#3fa9f5"/><stop offset="1" stop-color="#666ad6"/></linearGradient><linearGradient id="SVGID_3_" gradientUnits="userSpaceOnUse" x1="250.17" x2="284.171" xlink:href="#lg2" y1="247.499" y2="433.498"/><linearGradient id="SVGID_4_" gradientUnits="userSpaceOnUse" x1="76.384" x2="162.384" xlink:href="#lg2" y1="226.626" y2="402.626"/><linearGradient id="lg3"><stop offset="0" stop-color="#a34a9e" stop-opacity="0"/><stop offset="1" stop-color="#343168"/></linearGradient><linearGradient id="SVGID_5_" gradientUnits="userSpaceOnUse" x1="117.99" x2="117.99" xlink:href="#lg3" y1="259.132" y2="440.232"/><linearGradient id="SVGID_6_" gradientUnits="userSpaceOnUse" x1="436.144" x2="436.144" xlink:href="#lg2" y1="242.466" y2="225.075"/><linearGradient id="SVGID_7_" gradientUnits="userSpaceOnUse" x1="436.144" x2="436.144" xlink:href="#lg2" y1="257.721" y2="240.33"/><linearGradient id="SVGID_8_" gradientUnits="userSpaceOnUse" x1="436.144" x2="436.144" xlink:href="#lg2" y1="272.976" y2="255.585"/><linearGradient id="SVGID_9_" gradientUnits="userSpaceOnUse" x1="391.21" x2="391.21" xlink:href="#lg3" y1="259.132" y2="440.232"/><linearGradient id="SVGID_10_" gradientUnits="userSpaceOnUse" x1="477.272" x2="495.272" y1="279.741" y2="301.408"><stop offset="0" stop-color="#ff4974"/><stop offset=".2231" stop-color="#fb3f6c"/><stop offset=".6075" stop-color="#f12357"/><stop offset="1" stop-color="#e4003d"/></linearGradient><linearGradient id="SVGID_11_" gradientUnits="userSpaceOnUse" x1="21.057" x2="25.754" y1="275.316" y2="315.085"><stop offset="0" stop-color="#ffe548"/><stop offset=".1758" stop-color="#ffde50"/><stop offset=".4446" stop-color="#ffca65"/><stop offset=".7709" stop-color="#ffaa87"/><stop offset="1" stop-color="#ff90a4"/></linearGradient><linearGradient id="lg4"><stop offset="0" stop-color="#4f4a72"/><stop offset="1" stop-color="#3b395f"/></linearGradient><linearGradient id="SVGID_12_" gradientUnits="userSpaceOnUse" x1="29.385" x2="29.385" xlink:href="#lg4" y1="302.065" y2="333.389"/><linearGradient id="SVGID_13_" gradientUnits="userSpaceOnUse" x1="488.62" x2="488.62" xlink:href="#lg4" y1="302.065" y2="333.389"/><linearGradient id="SVGID_14_" gradientUnits="userSpaceOnUse" x1="287.766" x2="287.766" xlink:href="#lg1" y1="130.799" y2="155.501"/><linearGradient id="SVGID_15_" gradientUnits="userSpaceOnUse" x1="255" x2="255" xlink:href="#lg2" y1="316.223" y2="347.918"/><linearGradient id="SVGID_16_" gradientTransform="matrix(1 0 0 -1 0 343.588)" gradientUnits="userSpaceOnUse" x1="40.759" x2="49.433" xlink:href="#lg4" y1="125.386" y2="138.003"/><linearGradient id="SVGID_17_" gradientTransform="matrix(1 0 0 -1 0 343.588)" gradientUnits="userSpaceOnUse" x1="34.768" x2="44.781" xlink:href="#lg4" y1="152.19" y2="152.19"/><linearGradient id="SVGID_18_" gradientUnits="userSpaceOnUse" x1="115.63" x2="123.867" xlink:href="#lg4" y1="185.081" y2="236.019"/><linearGradient id="SVGID_19_" gradientUnits="userSpaceOnUse" x1="224.796" x2="283.019" xlink:href="#lg4" y1="163.468" y2="282.621"/><linearGradient id="SVGID_20_" gradientUnits="userSpaceOnUse" x1="312.799" x2="371.022" xlink:href="#lg4" y1="163.468" y2="282.621"/><linearGradient id="lg5"><stop offset="0" stop-color="#a34a9e"/><stop offset=".1551" stop-color="#9b489a"/><stop offset=".4019" stop-color="#84438f"/><stop offset=".7073" stop-color="#5e3b7d"/><stop offset="1" stop-color="#343168"/></linearGradient><radialGradient id="SVGID_21_" cx="110.537" cy="321.21" gradientUnits="userSpaceOnUse" r="66.476" xlink:href="#lg5"/><linearGradient id="lg6"><stop offset="0" stop-color="#a34a9e"/><stop offset="1" stop-color="#343168"/></linearGradient><linearGradient id="SVGID_22_" gradientTransform="matrix(-1 0 0 -1 -2682 -554)" gradientUnits="userSpaceOnUse" x1="-2839.603" x2="-2766.213" xlink:href="#lg6" y1="-930.26" y2="-856.87"/><linearGradient id="SVGID_23_" gradientUnits="userSpaceOnUse" x1="81.994" x2="148.681" xlink:href="#lg1" y1="300.651" y2="367.338"/><linearGradient id="SVGID_24_" gradientTransform="matrix(-1 0 0 -1 -2682 -554)" gradientUnits="userSpaceOnUse" x1="-2820.905" x2="-2782.155" xlink:href="#lg1" y1="-911.563" y2="-872.812"/><linearGradient id="lg7"><stop offset="0" stop-color="#a2e3e9" stop-opacity="0"/><stop offset="1" stop-color="#518cd2"/></linearGradient><linearGradient id="SVGID_25_" gradientUnits="userSpaceOnUse" x1="144.692" x2="114.635" xlink:href="#lg7" y1="363.35" y2="333.292"/><linearGradient id="SVGID_26_" gradientUnits="userSpaceOnUse" x1="115.86" x2="126.679" xlink:href="#lg4" y1="334.518" y2="345.336"/><linearGradient id="SVGID_27_" gradientUnits="userSpaceOnUse" x1="116.082" x2="120.564" xlink:href="#lg4" y1="310.033" y2="314.515"/><linearGradient id="SVGID_28_" gradientUnits="userSpaceOnUse" x1="116.082" x2="120.564" xlink:href="#lg4" y1="359.446" y2="363.928"/><linearGradient id="SVGID_29_" gradientTransform="matrix(0 1 -1 0 -1618 1064)" gradientUnits="userSpaceOnUse" x1="-729.261" x2="-724.779" xlink:href="#lg4" y1="-1762.603" y2="-1758.121"/><linearGradient id="SVGID_30_" gradientTransform="matrix(0 1 -1 0 -1618 1064)" gradientUnits="userSpaceOnUse" x1="-729.261" x2="-724.779" xlink:href="#lg4" y1="-1713.19" y2="-1708.708"/><linearGradient id="SVGID_31_" gradientTransform="matrix(.707 .707 -.707 .707 -588.655 867)" gradientUnits="userSpaceOnUse" x1="122.75" x2="127.232" xlink:href="#lg4" y1="-901.312" y2="-896.83"/><linearGradient id="SVGID_32_" gradientTransform="matrix(.707 .707 -.707 .707 -588.655 867)" gradientUnits="userSpaceOnUse" x1="122.75" x2="127.232" xlink:href="#lg4" y1="-851.898" y2="-847.416"/><linearGradient id="SVGID_33_" gradientTransform="matrix(-.707 .707 .707 .707 -2093.346 867)" gradientUnits="userSpaceOnUse" x1="-1940.592" x2="-1936.11" xlink:href="#lg4" y1="1162.03" y2="1166.512"/><linearGradient id="SVGID_34_" gradientTransform="matrix(-.707 .707 .707 .707 -2093.346 867)" gradientUnits="userSpaceOnUse" x1="-1940.592" x2="-1936.11" xlink:href="#lg4" y1="1211.444" y2="1215.926"/><radialGradient id="SVGID_35_" cx="383.762" cy="321.21" gradientUnits="userSpaceOnUse" r="66.476" xlink:href="#lg5"/><linearGradient id="SVGID_36_" gradientTransform="matrix(-1 0 0 -1 -2682 -554)" gradientUnits="userSpaceOnUse" x1="-3112.828" x2="-3039.438" xlink:href="#lg6" y1="-930.26" y2="-856.87"/><linearGradient id="SVGID_37_" gradientUnits="userSpaceOnUse" x1="355.219" x2="421.906" xlink:href="#lg1" y1="300.651" y2="367.338"/><linearGradient id="SVGID_38_" gradientTransform="matrix(-1 0 0 -1 -2682 -554)" gradientUnits="userSpaceOnUse" x1="-3094.13" x2="-3055.38" xlink:href="#lg1" y1="-911.563" y2="-872.812"/><linearGradient id="SVGID_39_" gradientUnits="userSpaceOnUse" x1="417.917" x2="387.86" xlink:href="#lg7" y1="363.35" y2="333.292"/><linearGradient id="SVGID_40_" gradientUnits="userSpaceOnUse" x1="389.085" x2="399.904" xlink:href="#lg4" y1="334.518" y2="345.336"/><linearGradient id="SVGID_41_" gradientUnits="userSpaceOnUse" x1="389.307" x2="393.789" xlink:href="#lg4" y1="310.033" y2="314.515"/><linearGradient id="SVGID_42_" gradientUnits="userSpaceOnUse" x1="389.307" x2="393.789" xlink:href="#lg4" y1="359.446" y2="363.928"/><linearGradient id="SVGID_43_" gradientTransform="matrix(0 1 -1 0 -1618 1064)" gradientUnits="userSpaceOnUse" x1="-729.261" x2="-724.779" xlink:href="#lg4" y1="-2035.829" y2="-2031.346"/><linearGradient id="SVGID_44_" gradientTransform="matrix(0 1 -1 0 -1618 1064)" gradientUnits="userSpaceOnUse" x1="-729.261" x2="-724.779" xlink:href="#lg4" y1="-1986.415" y2="-1981.933"/><linearGradient id="SVGID_45_" gradientTransform="matrix(.707 .707 -.707 .707 -588.655 867)" gradientUnits="userSpaceOnUse" x1="315.951" x2="320.433" xlink:href="#lg4" y1="-1094.513" y2="-1090.031"/><linearGradient id="SVGID_46_" gradientTransform="matrix(.707 .707 -.707 .707 -588.655 867)" gradientUnits="userSpaceOnUse" x1="315.951" x2="320.433" xlink:href="#lg4" y1="-1045.099" y2="-1040.617"/><linearGradient id="SVGID_47_" gradientTransform="matrix(-.707 .707 .707 .707 -2093.346 867)" gradientUnits="userSpaceOnUse" x1="-2133.794" x2="-2129.311" xlink:href="#lg4" y1="1355.231" y2="1359.714"/><linearGradient id="SVGID_48_" gradientTransform="matrix(-.707 .707 .707 .707 -2093.346 867)" gradientUnits="userSpaceOnUse" x1="-2133.794" x2="-2129.311" xlink:href="#lg4" y1="1404.645" y2="1409.128"/><path d="m483.498 133.951h-343.596c-50.712 0-92.846 36.711-101.284 85.007-1.171 6.701-5.621 12.37-11.806 15.204-7.401 3.391-12.146 10.785-12.146 18.925v83.559h22.408 18.259 442.46v-188.4c.001-7.895-6.4-14.295-14.295-14.295z" fill="url(#SVGID_1_)"/><path d="m81.62 283.152h77.657c13.102 0 23.723-10.621 23.723-23.723v-125.478h-43.098c-52.57 0-95.922 39.451-102.075 90.362-.677 5.603-5.371 9.85-11.015 9.85-7.401 3.391-12.146 10.785-12.146 18.925v67.398l16.389-16.389c13.411-13.411 31.599-20.945 50.565-20.945z" fill="url(#SVGID_2_)"/><path d="m79.794 224.651c-16.682 0-33.273 2.456-49.239 7.289-1.158.858-2.407 1.61-3.742 2.221-7.401 3.391-12.146 10.785-12.146 18.925v83.559h22.408 18.259 8.984l8.069-22.909c2.799-7.946 10.307-13.262 18.731-13.262h53.743c8.425 0 15.933 5.315 18.731 13.262l8.069 22.909h165.882l8.069-22.909c2.799-7.946 10.307-13.262 18.731-13.262h53.743c8.425 0 15.932 5.315 18.731 13.262l8.069 22.909h52.908v-111.994z" fill="url(#SVGID_3_)"/><path d="m81.62 283.152h77.658c13.102 0 23.723-10.621 23.723-23.723v-34.778h-103.207c-15.204 0-30.331 2.047-44.979 6.068-2.023 2.128-4.864 3.443-8.002 3.443-7.401 3.391-12.146 10.785-12.146 18.925v67.398l16.389-16.389c13.41-13.41 31.598-20.944 50.564-20.944z" fill="url(#SVGID_4_)"/><path d="m191.99 336.642h-20.33l-8.07-22.9c-2.8-7.95-10.3-13.27-18.73-13.27h-53.74c-8.43 0-15.93 5.32-18.73 13.27l-8.07 22.9h-20.33c0-40.87 33.13-74 74-74 7 0 13.78.97 20.21 2.8 31.05 8.79 53.79 37.34 53.79 71.2z" fill="url(#SVGID_5_)"/><path d="m461.574 243.465h-50.86c-3.13 0-5.667-2.537-5.667-5.667 0-3.13 2.537-5.667 5.667-5.667h50.86c3.13 0 5.667 2.537 5.667 5.667 0 3.13-2.538 5.667-5.667 5.667z" fill="url(#SVGID_6_)"/><path d="m461.574 258.72h-50.86c-3.13 0-5.667-2.537-5.667-5.667 0-3.13 2.537-5.667 5.667-5.667h50.86c3.13 0 5.667 2.537 5.667 5.667 0 3.13-2.538 5.667-5.667 5.667z" fill="url(#SVGID_7_)"/><path d="m461.574 273.975h-50.86c-3.13 0-5.667-2.537-5.667-5.667 0-3.13 2.537-5.667 5.667-5.667h50.86c3.13 0 5.667 2.537 5.667 5.667 0 3.13-2.538 5.667-5.667 5.667z" fill="url(#SVGID_8_)"/><path d="m465.21 336.642h-20.32l-8.07-22.9c-2.8-7.95-10.31-13.27-18.73-13.27h-53.75c-8.42 0-15.93 5.32-18.73 13.27l-8.07 22.9h-20.33c0-40.87 33.13-74 74-74 7 0 13.78.97 20.21 2.8 31.05 8.79 53.79 37.34 53.79 71.2z" fill="url(#SVGID_9_)"/><path d="m497.794 277.813h-8.62c-5.687 0-10.297 4.61-10.297 10.297v20.192h18.917z" fill="url(#SVGID_10_)"/><path d="m22.485 277.813h-7.818v30.489h18.115v-20.192c0-5.687-4.61-10.297-10.297-10.297z" fill="url(#SVGID_11_)"/><path d="m45.142 345.56h-31.515c-7.526 0-13.627-6.101-13.627-13.627v-16.172c0-7.526 6.101-13.627 13.627-13.627h31.515c7.526 0 13.627 6.101 13.627 13.627v16.172c.001 7.526-6.101 13.627-13.627 13.627z" fill="url(#SVGID_12_)"/><path d="m496.373 345.56h-15.505c-7.526 0-13.627-6.101-13.627-13.627v-16.172c0-7.526 6.101-13.627 13.627-13.627h15.505c7.526 0 13.627 6.101 13.627 13.627v16.172c0 7.526-6.101 13.627-13.627 13.627z" fill="url(#SVGID_13_)"/><path d="m497.794 151.041v-3.708c0-15.173-12.3-27.474-27.474-27.474h-330.418c-22.082 0-42.53 6.968-59.282 18.819-5.414 3.83-2.687 12.363 3.945 12.363z" fill="url(#SVGID_14_)"/><path d="m342.279 337.788 6.554-19.879c.549-1.666-.691-3.381-2.445-3.381h-182.775c-1.754 0-2.995 1.715-2.445 3.381l6.554 19.879c.348 1.056 1.334 1.769 2.445 1.769h169.667c1.111 0 2.097-.713 2.445-1.769z" fill="url(#SVGID_15_)"/><path d="m41.576 200.184h-8v5.247c0 8.223 6.666 14.888 14.888 14.888h8.306c2.209 0 4-1.791 4-4 0-2.209-1.791-4-4-4h-8.305c-3.804 0-6.889-3.084-6.889-6.889z" fill="url(#SVGID_16_)"/><path d="m37.576 172.826c-3.471 0-6.284 2.813-6.284 6.284v24.577c0 3.47 2.813 6.284 6.284 6.284 3.47 0 6.284-2.813 6.284-6.284v-24.577c0-3.471-2.814-6.284-6.284-6.284z" fill="url(#SVGID_17_)"/><path d="m166.265 206.988v-27.648c0-10.687-8.663-19.35-19.35-19.35h-12.053c-30.306 0-56.247 18.621-67.045 45.042-1.423 3.481 1.199 7.287 4.959 7.287h88.158c2.944 0 5.331-2.387 5.331-5.331z" fill="url(#SVGID_18_)"/><path d="m260.259 212.319h-48.754c-6.485 0-11.742-5.257-11.742-11.742v-28.846c0-6.485 5.257-11.741 11.742-11.741h48.754c6.485 0 11.741 5.257 11.741 11.741v28.846c0 6.485-5.257 11.742-11.741 11.742z" fill="url(#SVGID_19_)"/><path d="m348.261 212.319h-48.754c-6.485 0-11.742-5.257-11.742-11.742v-28.846c0-6.485 5.257-11.741 11.742-11.741h48.754c6.485 0 11.741 5.257 11.741 11.741v28.846c.001 6.485-5.256 11.742-11.741 11.742z" fill="url(#SVGID_20_)"/><circle cx="117.989" cy="336.647" fill="url(#SVGID_21_)" r="53.494"/><circle cx="117.989" cy="336.647" fill="url(#SVGID_22_)" r="34.598"/><circle cx="117.989" cy="336.647" fill="url(#SVGID_23_)" r="31.439"/><circle cx="117.989" cy="336.647" fill="url(#SVGID_24_)" r="18.268"/><path d="m146.243 350.442-20.543-20.543c-1.88-2.146-4.633-3.508-7.71-3.508-5.664 0-10.256 4.592-10.256 10.256 0 3.077 1.362 5.831 3.508 7.71l20.543 20.543c6.281-3.073 11.385-8.177 14.458-14.458z" fill="url(#SVGID_25_)"/><circle cx="117.989" cy="336.647" fill="url(#SVGID_26_)" r="10.256"/><circle cx="117.989" cy="311.94" fill="url(#SVGID_27_)" r="3.637"/><circle cx="117.989" cy="361.353" fill="url(#SVGID_28_)" r="3.637"/><circle cx="142.696" cy="336.647" fill="url(#SVGID_29_)" r="3.637"/><circle cx="93.283" cy="336.647" fill="url(#SVGID_30_)" r="3.637"/><circle cx="135.46" cy="319.176" fill="url(#SVGID_31_)" r="3.637"/><circle cx="100.519" cy="354.117" fill="url(#SVGID_32_)" r="3.637"/><circle cx="100.519" cy="319.176" fill="url(#SVGID_33_)" r="3.637"/><circle cx="135.46" cy="354.117" fill="url(#SVGID_34_)" r="3.637"/><circle cx="391.214" cy="336.647" fill="url(#SVGID_35_)" r="53.494"/><circle cx="391.214" cy="336.647" fill="url(#SVGID_36_)" r="34.598"/><circle cx="391.214" cy="336.647" fill="url(#SVGID_37_)" r="31.439"/><circle cx="391.214" cy="336.647" fill="url(#SVGID_38_)" r="18.268"/><path d="m419.468 350.442-20.543-20.543c-1.88-2.146-4.633-3.508-7.71-3.508-5.664 0-10.256 4.592-10.256 10.256 0 3.077 1.362 5.831 3.508 7.71l20.543 20.543c6.281-3.073 11.385-8.177 14.458-14.458z" fill="url(#SVGID_39_)"/><circle cx="391.214" cy="336.647" fill="url(#SVGID_40_)" r="10.256"/><circle cx="391.214" cy="311.94" fill="url(#SVGID_41_)" r="3.637"/><circle cx="391.214" cy="361.353" fill="url(#SVGID_42_)" r="3.637"/><circle cx="415.921" cy="336.647" fill="url(#SVGID_43_)" r="3.637"/><circle cx="366.508" cy="336.647" fill="url(#SVGID_44_)" r="3.637"/><circle cx="408.685" cy="319.176" fill="url(#SVGID_45_)" r="3.637"/><circle cx="373.744" cy="354.117" fill="url(#SVGID_46_)" r="3.637"/><circle cx="373.744" cy="319.176" fill="url(#SVGID_47_)" r="3.637"/><circle cx="408.685" cy="354.117" fill="url(#SVGID_48_)" r="3.637"/></svg>