<?xml version="1.0" encoding="UTF-8"?>
<svg width="540px" height="540px" viewBox="0 0 540 540" version="1.1" xmlns="http://www.w3.org/2000/svg" xmlns:xlink="http://www.w3.org/1999/xlink">
    <title>logo_original_transparent@1x</title>
    <defs>
        <linearGradient x1="50%" y1="0%" x2="50%" y2="100%" id="linearGradient-1">
            <stop stop-color="#ACE3FF" offset="0%"></stop>
            <stop stop-color="#51B0FA" offset="100%"></stop>
        </linearGradient>
        <linearGradient x1="50%" y1="0%" x2="50%" y2="100%" id="linearGradient-2">
            <stop stop-color="#ACE3FF" offset="0%"></stop>
            <stop stop-color="#51B0FA" offset="100%"></stop>
        </linearGradient>
    </defs>
    <g id="logo_original_transparent" stroke="none" stroke-width="1" fill="none" fill-rule="evenodd">
        <g id="Group-Copy-10" transform="translate(70.000000, 127.000000)" fill-rule="nonzero">
            <path d="M48.2291967,180.025126 L65.0243051,131.584393 L81.8194136,180.025126 L104.515506,180.025126 L130.04861,96.4454626 L106.785115,96.4454626 L92.0326553,150.428614 L73.8757812,96.4454626 L56.1728291,96.4454626 L38.015955,150.428614 L23.2634949,96.4454626 L0,96.4454626 L25.5331041,180.025126 L48.2291967,180.025126 Z M264.617808,180.025126 L264.617808,147.879101 L285.838654,180.025126 L313.527887,180.025126 L286.633018,145.772983 C292.760963,144.368903 297.394748,141.690068 300.534374,137.736477 C303.674001,133.782885 305.243814,128.628436 305.243814,122.27313 C305.243814,118.725983 304.657498,115.400532 303.484866,112.296778 C302.312235,109.193024 300.572201,106.458764 298.264765,104.093999 C295.957329,101.729234 293.02575,99.863287 289.470029,98.4961573 C285.914308,97.1290275 281.753358,96.4454626 276.987178,96.4454626 L276.987178,96.4454626 L242.375637,96.4454626 L242.375637,180.025126 L264.617808,180.025126 Z M268.816585,133.80136 L264.617808,133.80136 L264.617808,113.183565 L268.816585,113.183565 C273.204496,113.183565 276.571083,114.070352 278.916346,115.843926 C281.261609,117.617499 282.434241,120.167012 282.434241,123.492462 C282.434241,126.817913 281.261609,129.367425 278.916346,131.140999 C276.571083,132.914573 273.204496,133.80136 268.816585,133.80136 L268.816585,133.80136 Z M342.238444,180.025126 L342.238444,143.777712 L371.175962,180.025126 L400,180.025126 L362.891889,136.018327 L396.822547,96.4454626 L369.360275,96.4454626 L342.238444,130.919302 L342.238444,96.4454626 L319.996274,96.4454626 L319.996274,180.025126 L342.238444,180.025126 Z" id="•WORK" fill="url(#linearGradient-1)"></path>
            <path d="M245.153429,62.9988176 L245.153429,42.6766184 L254.469924,42.6766184 C261.269894,42.6766184 266.476958,40.8882649 270.091116,37.3115578 C273.705273,33.7348507 275.512352,28.6949453 275.512352,22.1918416 C275.512352,15.6887378 273.705273,10.6488324 270.091116,7.07212533 C266.476958,3.49541827 261.269894,1.70706474 254.469924,1.70706474 L254.469924,1.70706474 L229.411765,1.70706474 L229.411765,62.9988176 L245.153429,62.9988176 Z M250.373878,29.8329885 L245.153429,29.8329885 L245.153429,14.5506946 L250.373878,14.5506946 C256.15653,14.5506946 259.047856,17.0977436 259.047856,22.1918416 C259.047856,27.2859395 256.15653,29.8329885 250.373878,29.8329885 L250.373878,29.8329885 Z M297.59887,62.9988176 L297.59887,39.4250665 L312.617702,62.9988176 L332.214468,62.9988176 L313.179905,37.8805794 C317.516894,36.8509213 320.796407,34.886442 323.018445,31.9871416 C325.240482,29.0878412 326.351501,25.3079121 326.351501,20.6473544 C326.351501,18.0461129 325.936542,15.607449 325.106625,13.3313627 C324.276707,11.0552764 323.045216,9.05015272 321.412152,7.31599172 C319.779089,5.58183072 317.704295,4.21346931 315.18777,3.21090748 C312.671246,2.20834565 309.726376,1.70706474 306.353163,1.70706474 L306.353163,1.70706474 L281.857206,1.70706474 L281.857206,62.9988176 L297.59887,62.9988176 Z M300.570511,29.1013893 L297.59887,29.1013893 L297.59887,13.9816731 L300.570511,13.9816731 C303.676009,13.9816731 306.058676,14.6319834 307.718511,15.9326042 C309.378346,17.2332249 310.208264,19.1028673 310.208264,21.5415312 C310.208264,23.9801951 309.378346,25.8498374 307.718511,27.1504582 C306.058676,28.4510789 303.676009,29.1013893 300.570511,29.1013893 L300.570511,29.1013893 Z M366.428492,64.7058824 C371.300912,64.7058824 375.79853,63.8794463 379.921347,62.226574 C384.044164,60.5737018 387.591392,58.2840674 390.563033,55.3576707 C393.534674,52.431274 395.850412,49.0035964 397.510247,45.0746379 C399.170082,41.1456794 400,36.9051138 400,32.3529412 C400,27.8007685 399.170082,23.560203 397.510247,19.6312445 C395.850412,15.7022859 393.534674,12.2746083 390.563033,9.34821165 C387.591392,6.42181496 384.044164,4.13218051 379.921347,2.47930831 C375.79853,0.826436102 371.300912,0 366.428492,0 C361.502529,0 356.991525,0.826436102 352.89548,2.47930831 C348.799435,4.13218051 345.278978,6.42181496 342.334109,9.34821165 C339.38924,12.2746083 337.086887,15.7022859 335.427052,19.6312445 C333.767217,23.560203 332.937299,27.8007685 332.937299,32.3529412 C332.937299,36.9051138 333.767217,41.1456794 335.427052,45.0746379 C337.086887,49.0035964 339.38924,52.431274 342.334109,55.3576707 C345.278978,58.2840674 348.799435,60.5737018 352.89548,62.226574 C356.991525,63.8794463 361.502529,64.7058824 366.428492,64.7058824 Z M366.428492,49.2610109 C364.12614,49.2610109 361.94426,48.8410188 359.882851,48.0010346 C357.821443,47.1610503 356.014364,45.9823628 354.461615,44.4649719 C352.908866,42.947581 351.677375,41.1592275 350.767143,39.0999113 C349.856911,37.0405951 349.401795,34.7916051 349.401795,32.3529412 C349.401795,29.9142773 349.856911,27.6652872 350.767143,25.605971 C351.677375,23.5466548 352.908866,21.7583013 354.461615,20.2409104 C356.014364,18.7235196 357.821443,17.544832 359.882851,16.7048478 C361.94426,15.8648635 364.12614,15.4448714 366.428492,15.4448714 C368.730845,15.4448714 370.912725,15.8648635 372.974133,16.7048478 C375.035542,17.544832 376.856006,18.7235196 378.435527,20.2409104 C380.015047,21.7583013 381.259924,23.5466548 382.170156,25.605971 C383.080388,27.6652872 383.535505,29.9142773 383.535505,32.3529412 C383.535505,34.7916051 383.080388,37.0405951 382.170156,39.0999113 C381.259924,41.1592275 380.015047,42.947581 378.435527,44.4649719 C376.856006,45.9823628 375.035542,47.1610503 372.974133,48.0010346 C370.912725,48.8410188 368.730845,49.2610109 366.428492,49.2610109 Z" id="PRO" fill="#1E1E1E"></path>
            <path d="M223.481048,112.205771 C213.912174,96.8656601 199.840968,89 182.578314,89 C162.181866,89 145.464665,102.469284 140.490721,112.253649 C140.151445,112.921044 140.527399,113.490082 141.116356,113.024097 C148.075574,107.53133 157.108568,98.1125857 180.660244,98.1733663 C202.15394,98.2296446 220.024284,114.288494 220.288301,137.099225 C220.545548,159.46424 204.988948,179.082873 178.89336,177.656394 C165.667976,176.933447 152.938453,168.037299 148.804442,154.395427 C145.798709,144.467927 147.985312,130.794539 156.909991,124.680459 C170.05443,115.675924 186.188806,124.173954 188.483723,131.771531 C188.596551,132.151973 180.057743,123.780006 169.490291,129.295284 C158.230077,135.170744 156.420319,146.376888 160.728084,156.945962 C165.390129,168.390727 179.376263,172.62511 189.760934,170.452766 C204.065243,167.461009 212.672424,153.637941 211.913545,140.138996 C210.477136,114.588284 186.748432,101.478022 163.961729,107.459285 C136.093262,114.77547 130.233482,149.596737 144.510216,168.433499 C159.812486,188.623356 187.307345,192.369407 207.933657,179.561232 C228.280269,166.926754 237.043227,133.947642 223.481048,112.205771 Z M186.978598,114.363524 C187.890247,114.77323 201.871868,119.277749 204.579735,136.555202 C204.948064,138.905307 206.351132,147.851392 200.405107,155.577284 C196.068006,161.211872 188.461156,165.360712 180.491,164.300428 C178.952028,164.095575 172.310984,163.21313 168.192769,157.490748 C164.884658,152.896183 165.166728,147.903168 165.259246,146.235078 C165.396896,143.7971 165.631578,139.585228 168.982564,136.217532 C172.491508,132.690005 176.997851,132.518919 177.89596,132.503161 C178.396916,132.494157 184.306836,132.48065 187.711979,136.667759 C191.518789,141.350117 189.836903,148.175556 190.457456,148.261099 C191.511268,148.405171 193.985202,143.441421 194.425233,138.149005 C194.569653,136.420134 194.948754,130.983646 191.791832,125.281523 C187.497606,117.517362 179.818546,114.989339 177.349874,114.174429 C172.73842,112.689217 167.834738,112.341617 163.059103,113.161418 C163.054591,113.053362 175.334769,109.120637 186.978598,114.363524 Z" id="logo_prowork" fill="url(#linearGradient-2)"></path>
            <path d="M71.4352941,263.341176 C77.6470588,263.341176 82.572549,261.05098 86.2117647,256.470588 L86.2117647,256.470588 L86.2117647,261.835294 L103.341176,261.835294 L103.341176,213.552941 L86.2117647,213.552941 L86.2117647,218.352941 C82.2588235,214.14902 77.2705882,212.047059 71.2470588,212.047059 C67.6705882,212.047059 64.4078431,212.721569 61.4588235,214.070588 C58.5098039,215.419608 55.9686275,217.254902 53.8352941,219.576471 C51.7019608,221.898039 50.0392157,224.611765 48.8470588,227.717647 C47.654902,230.823529 47.0588235,234.101961 47.0588235,237.552941 C47.0588235,241.254902 47.6705882,244.67451 48.8941176,247.811765 C50.1176471,250.94902 51.827451,253.678431 54.0235294,256 C56.2196078,258.321569 58.7921569,260.12549 61.7411765,261.411765 C64.6901961,262.698039 67.9215686,263.341176 71.4352941,263.341176 Z M75.7647059,248.658824 C74.1960784,248.658824 72.7372549,248.376471 71.3882353,247.811765 C70.0392157,247.247059 68.8784314,246.462745 67.9058824,245.458824 C66.9333333,244.454902 66.1647059,243.278431 65.6,241.929412 C65.0352941,240.580392 64.7529412,239.121569 64.7529412,237.552941 C64.7529412,236.047059 65.0352941,234.65098 65.6,233.364706 C66.1647059,232.078431 66.9333333,230.933333 67.9058824,229.929412 C68.8784314,228.92549 70.0392157,228.141176 71.3882353,227.576471 C72.7372549,227.011765 74.1960784,226.729412 75.7647059,226.729412 C77.2705882,226.729412 78.6980392,227.011765 80.0470588,227.576471 C81.3960784,228.141176 82.5568627,228.92549 83.5294118,229.929412 C84.5019608,230.933333 85.2862745,232.109804 85.8823529,233.458824 C86.4784314,234.807843 86.7764706,236.235294 86.7764706,237.741176 C86.7764706,239.247059 86.4784314,240.658824 85.8823529,241.976471 C85.2862745,243.294118 84.5019608,244.454902 83.5294118,245.458824 C82.5568627,246.462745 81.3960784,247.247059 80.0470588,247.811765 C78.6980392,248.376471 77.2705882,248.658824 75.7647059,248.658824 Z M138.541176,286.117647 C141.866667,286.117647 144.956863,285.741176 147.811765,284.988235 C150.666667,284.235294 153.223529,283.2 155.482353,281.882353 C157.741176,280.564706 159.670588,279.011765 161.270588,277.223529 C162.870588,275.435294 164.047059,273.505882 164.8,271.435294 C165.364706,269.803922 165.803922,267.921569 166.117647,265.788235 C166.431373,263.654902 166.588235,261.239216 166.588235,258.541176 L166.588235,258.541176 L166.588235,213.552941 L149.552941,213.552941 L149.552941,218.635294 C145.662745,214.368627 140.862745,212.235294 135.152941,212.235294 C131.639216,212.235294 128.392157,212.909804 125.411765,214.258824 C122.431373,215.607843 119.858824,217.458824 117.694118,219.811765 C115.529412,222.164706 113.819608,224.92549 112.564706,228.094118 C111.309804,231.262745 110.682353,234.698039 110.682353,238.4 C110.682353,242.039216 111.262745,245.34902 112.423529,248.329412 C113.584314,251.309804 115.215686,253.866667 117.317647,256 C119.419608,258.133333 121.913725,259.796078 124.8,260.988235 C127.686275,262.180392 130.854902,262.776471 134.305882,262.776471 C135.87451,262.776471 137.317647,262.666667 138.635294,262.447059 C139.952941,262.227451 141.207843,261.866667 142.4,261.364706 C143.592157,260.862745 144.768627,260.219608 145.929412,259.435294 C147.090196,258.65098 148.298039,257.662745 149.552941,256.470588 L149.552941,256.470588 L149.552941,261.082353 C149.552941,264.658824 148.596078,267.45098 146.682353,269.458824 C144.768627,271.466667 142.023529,272.470588 138.447059,272.470588 C134.243137,272.470588 131.545098,270.870588 130.352941,267.670588 L130.352941,267.670588 L111.152941,267.670588 C111.654902,270.305882 112.658824,272.737255 114.164706,274.964706 C115.670588,277.192157 117.6,279.137255 119.952941,280.8 C122.305882,282.462745 125.05098,283.764706 128.188235,284.705882 C131.32549,285.647059 134.776471,286.117647 138.541176,286.117647 Z M139.388235,248.564706 C137.819608,248.564706 136.360784,248.282353 135.011765,247.717647 C133.662745,247.152941 132.501961,246.368627 131.529412,245.364706 C130.556863,244.360784 129.788235,243.184314 129.223529,241.835294 C128.658824,240.486275 128.376471,239.027451 128.376471,237.458824 C128.376471,235.952941 128.67451,234.541176 129.270588,233.223529 C129.866667,231.905882 130.666667,230.760784 131.670588,229.788235 C132.67451,228.815686 133.835294,228.031373 135.152941,227.435294 C136.470588,226.839216 137.882353,226.541176 139.388235,226.541176 C140.831373,226.541176 142.227451,226.823529 143.576471,227.388235 C144.92549,227.952941 146.101961,228.737255 147.105882,229.741176 C148.109804,230.745098 148.909804,231.905882 149.505882,233.223529 C150.101961,234.541176 150.4,235.984314 150.4,237.552941 C150.4,239.058824 150.101961,240.486275 149.505882,241.835294 C148.909804,243.184314 148.12549,244.360784 147.152941,245.364706 C146.180392,246.368627 145.019608,247.152941 143.670588,247.717647 C142.321569,248.282353 140.894118,248.564706 139.388235,248.564706 Z M202.541176,263.623529 C215.843137,263.623529 224.156863,258.101961 227.482353,247.058824 L227.482353,247.058824 L211.011765,247.058824 C209.129412,250.070588 206.337255,251.576471 202.635294,251.576471 C195.733333,251.576471 192.282353,247.905882 192.282353,240.564706 L192.282353,240.564706 L228.141176,240.564706 L228.141176,238.776471 C228.141176,234.572549 227.545098,230.792157 226.352941,227.435294 C225.160784,224.078431 223.435294,221.239216 221.176471,218.917647 C218.917647,216.596078 216.156863,214.823529 212.894118,213.6 C209.631373,212.376471 205.960784,211.764706 201.882353,211.764706 C197.741176,211.764706 194.023529,212.376471 190.729412,213.6 C187.435294,214.823529 184.627451,216.564706 182.305882,218.823529 C179.984314,221.082353 178.196078,223.827451 176.941176,227.058824 C175.686275,230.290196 175.058824,233.913725 175.058824,237.929412 C175.058824,241.819608 175.717647,245.333333 177.035294,248.470588 C178.352941,251.607843 180.219608,254.305882 182.635294,256.564706 C185.05098,258.823529 187.952941,260.564706 191.341176,261.788235 C194.729412,263.011765 198.462745,263.623529 202.541176,263.623529 Z M212.235294,230.682353 L192.752941,230.682353 C193.192157,228.172549 194.243137,226.227451 195.905882,224.847059 C197.568627,223.466667 199.717647,222.776471 202.352941,222.776471 C204.862745,222.776471 206.996078,223.498039 208.752941,224.941176 C210.509804,226.384314 211.670588,228.298039 212.235294,230.682353 L212.235294,230.682353 Z M252.517647,261.835294 L252.517647,236.047059 C252.517647,232.847059 253.286275,230.384314 254.823529,228.658824 C256.360784,226.933333 258.572549,226.070588 261.458824,226.070588 C262.52549,226.070588 263.529412,226.227451 264.470588,226.541176 C265.411765,226.854902 266.258824,227.388235 267.011765,228.141176 C267.890196,229.019608 268.501961,230.196078 268.847059,231.670588 C269.192157,233.145098 269.364706,235.07451 269.364706,237.458824 L269.364706,237.458824 L269.364706,261.835294 L286.4,261.835294 L286.4,231.152941 C286.4,228.580392 286.14902,226.290196 285.647059,224.282353 C285.145098,222.27451 284.203922,220.454902 282.823529,218.823529 C281.129412,216.815686 279.07451,215.262745 276.658824,214.164706 C274.243137,213.066667 271.341176,212.517647 267.952941,212.517647 C264.752941,212.517647 261.960784,213.003922 259.576471,213.976471 C257.192157,214.94902 254.839216,216.847059 252.517647,219.670588 L252.517647,219.670588 L252.517647,213.552941 L235.482353,213.552941 L235.482353,261.835294 L252.517647,261.835294 Z M320.094118,263.341176 C323.858824,263.341176 327.843137,262.431373 332.047059,260.611765 L332.047059,260.611765 L332.047059,246.117647 C329.286275,248.313725 326.305882,249.411765 323.105882,249.411765 C321.47451,249.411765 319.937255,249.129412 318.494118,248.564706 C317.05098,248 315.811765,247.2 314.776471,246.164706 C313.741176,245.129412 312.92549,243.905882 312.329412,242.494118 C311.733333,241.082353 311.435294,239.529412 311.435294,237.835294 C311.435294,236.078431 311.733333,234.494118 312.329412,233.082353 C312.92549,231.670588 313.756863,230.447059 314.823529,229.411765 C315.890196,228.376471 317.129412,227.576471 318.541176,227.011765 C319.952941,226.447059 321.47451,226.164706 323.105882,226.164706 C326.117647,226.164706 329.098039,227.168627 332.047059,229.176471 L332.047059,229.176471 L332.047059,214.682353 C328.533333,212.92549 324.705882,212.047059 320.564706,212.047059 C316.8,212.047059 313.270588,212.690196 309.976471,213.976471 C306.682353,215.262745 303.843137,217.05098 301.458824,219.341176 C299.07451,221.631373 297.192157,224.360784 295.811765,227.529412 C294.431373,230.698039 293.741176,234.196078 293.741176,238.023529 C293.741176,241.85098 294.462745,245.317647 295.905882,248.423529 C297.34902,251.529412 299.278431,254.196078 301.694118,256.423529 C304.109804,258.65098 306.901961,260.360784 310.070588,261.552941 C313.239216,262.745098 316.580392,263.341176 320.094118,263.341176 Z M359.529412,285.929412 L398.305882,213.552941 L378.729412,213.552941 L366.211765,238.305882 L353.317647,213.552941 L333.552941,213.552941 L356.894118,255.247059 L340.423529,285.929412 L359.529412,285.929412 Z" id="agency" fill="#1E1E1E"></path>
        </g>
    </g>
</svg>